<?xml version="1.0" encoding="UTF-8"?>
<!DOCTYPE svg PUBLIC "-//W3C//DTD SVG 1.1//EN" "http://www.w3.org/Graphics/SVG/1.1/DTD/svg11.dtd">
<svg xmlns="http://www.w3.org/2000/svg" version="1.1" width="206px" height="192px" style="shape-rendering:geometricPrecision; text-rendering:geometricPrecision; image-rendering:optimizeQuality; fill-rule:evenodd; clip-rule:evenodd" xmlns:xlink="http://www.w3.org/1999/xlink">
<g><path style="opacity:1" fill="#fefeff" d="M -0.5,-0.5 C 68.1667,-0.5 136.833,-0.5 205.5,-0.5C 205.5,63.5 205.5,127.5 205.5,191.5C 136.833,191.5 68.1667,191.5 -0.5,191.5C -0.5,127.5 -0.5,63.5 -0.5,-0.5 Z"/></g>
<g><path style="opacity:1" fill="#acbaff" d="M 49.5,40.5 C 58.6749,39.1778 68.0082,39.1778 77.5,40.5C 77.3764,41.1067 77.0431,41.44 76.5,41.5C 67.6822,40.5067 58.6822,40.1734 49.5,40.5 Z"/></g>
<g><path style="opacity:1" fill="#a1b7ff" d="M 159.5,40.5 C 168.318,39.5067 177.318,39.1734 186.5,39.5C 186.737,40.791 186.404,41.791 185.5,42.5C 177.231,40.5302 168.565,39.8636 159.5,40.5 Z"/></g>
<g><path style="opacity:1" fill="#0b2eff" d="M 49.5,40.5 C 58.6822,40.1734 67.6822,40.5067 76.5,41.5C 73.4215,47.9913 70.0882,54.3246 66.5,60.5C 58.794,58.1473 51.794,54.4807 45.5,49.5C 46.5612,46.3777 47.8946,43.3777 49.5,40.5 Z"/></g>
<g><path style="opacity:1" fill="#0c39ff" d="M 159.5,40.5 C 168.565,39.8636 177.231,40.5302 185.5,42.5C 178.5,55.8333 171.5,69.1667 164.5,82.5C 164.5,81.5 164.5,80.5 164.5,79.5C 163.448,79.6495 162.448,79.4828 161.5,79C 161.833,78.6667 162.167,78.3333 162.5,78C 160.469,77.3678 158.802,76.2012 157.5,74.5C 155.577,73.6922 153.577,73.1922 151.5,73C 151.833,72.6667 152.167,72.3333 152.5,72C 151.5,71.6667 150.5,71.3333 149.5,71C 149.833,70.6667 150.167,70.3333 150.5,70C 148.527,69.5045 146.527,69.3379 144.5,69.5C 149.249,59.6687 154.249,50.002 159.5,40.5 Z"/></g>
<g><path style="opacity:1" fill="#2242ff" d="M 45.5,49.5 C 51.794,54.4807 58.794,58.1473 66.5,60.5C 65.0713,63.6963 63.4046,66.6963 61.5,69.5C 57.5389,67.7871 56.8723,68.4538 59.5,71.5C 59.1667,71.8333 58.8333,72.1667 58.5,72.5C 52.8333,69.1667 47.1667,65.8333 41.5,62.5C 40.6143,61.675 40.281,60.675 40.5,59.5C 41.6589,55.8487 43.3256,52.5154 45.5,49.5 Z"/></g>
<g><path style="opacity:1" fill="#99abff" d="M 92.5,64.5 C 101.318,63.5067 110.318,63.1734 119.5,63.5C 119.737,64.791 119.404,65.791 118.5,66.5C 110.231,64.5302 101.565,63.8636 92.5,64.5 Z"/></g>
<g><path style="opacity:1" fill="#3c57ff" d="M 40.5,59.5 C 40.281,60.675 40.6143,61.675 41.5,62.5C 47.1667,65.8333 52.8333,69.1667 58.5,72.5C 58.8333,72.1667 59.1667,71.8333 59.5,71.5C 56.8723,68.4538 57.5389,67.7871 61.5,69.5C 60.2583,73.6553 58.2583,77.322 55.5,80.5C 54.1266,80.6567 52.7932,80.49 51.5,80C 46.8333,77.3333 42.1667,74.6667 37.5,72C 36.5939,70.3005 36.2606,68.4672 36.5,66.5C 37.0787,63.6689 38.412,61.3356 40.5,59.5 Z"/></g>
<g><path style="opacity:1" fill="#092eff" d="M 92.5,64.5 C 101.565,63.8636 110.231,64.5302 118.5,66.5C 114.833,73.1667 111.167,79.8333 107.5,86.5C 100.206,83.5209 93.5397,79.5209 87.5,74.5C 88.6589,70.8487 90.3256,67.5154 92.5,64.5 Z"/></g>
<g><path style="opacity:1" fill="#0c30ff" d="M 144.5,69.5 C 146.527,69.3379 148.527,69.5045 150.5,70C 150.167,70.3333 149.833,70.6667 149.5,71C 150.5,71.3333 151.5,71.6667 152.5,72C 152.167,72.3333 151.833,72.6667 151.5,73C 153.577,73.1922 155.577,73.6922 157.5,74.5C 158.802,76.2012 160.469,77.3678 162.5,78C 162.167,78.3333 161.833,78.6667 161.5,79C 162.448,79.4828 163.448,79.6495 164.5,79.5C 164.5,80.5 164.5,81.5 164.5,82.5C 160.167,91.1667 155.833,99.8333 151.5,108.5C 149.09,107.937 146.757,107.437 144.5,107C 145.579,107.956 146.745,108.789 148,109.5C 148.667,110.5 148.667,111.5 148,112.5C 142.833,109.333 137.667,106.167 132.5,103C 130.859,101.871 129.859,100.371 129.5,98.5C 134.249,88.6687 139.249,79.002 144.5,69.5 Z"/></g>
<g><path style="opacity:1" fill="#5369ff" d="M 36.5,66.5 C 36.2606,68.4672 36.5939,70.3005 37.5,72C 42.1667,74.6667 46.8333,77.3333 51.5,80C 52.7932,80.49 54.1266,80.6567 55.5,80.5C 54.4388,83.6223 53.1054,86.6223 51.5,89.5C 43.768,88.1376 37.4347,84.471 32.5,78.5C 32.6187,73.9961 33.9521,69.9961 36.5,66.5 Z"/></g>
<g><path style="opacity:1" fill="#6a7dff" d="M 32.5,78.5 C 37.4347,84.471 43.768,88.1376 51.5,89.5C 50.6993,91.0418 50.366,92.7085 50.5,94.5C 49.6236,94.3691 48.9569,94.7025 48.5,95.5C 47.9422,98.127 46.9422,100.46 45.5,102.5C 46.0522,100.669 46.0522,99.0026 45.5,97.5C 42.9504,96.0584 40.2837,94.8917 37.5,94C 35.5384,91.6868 33.2051,89.8535 30.5,88.5C 30.1588,84.8405 30.8255,81.5072 32.5,78.5 Z"/></g>
<g><path style="opacity:1" fill="#3754ff" d="M 81.5,85.5 C 87.0904,89.9727 93.0904,93.9727 99.5,97.5C 100.631,99.0745 100.798,100.741 100,102.5C 99.0978,104.431 97.9312,106.097 96.5,107.5C 96.67,106.178 96.3366,105.011 95.5,104C 89.4984,101.001 83.8317,97.5013 78.5,93.5C 79.0253,92.8076 79.6919,92.3076 80.5,92C 79.7476,91.3292 79.4142,90.4959 79.5,89.5C 79.6596,87.847 80.3263,86.5137 81.5,85.5 Z"/></g>
<g><path style="opacity:1" fill="#1941ff" d="M 87.5,74.5 C 93.5397,79.5209 100.206,83.5209 107.5,86.5C 105.903,89.3188 105.403,92.3188 106,95.5C 109.705,101.577 112.872,107.91 115.5,114.5C 114.25,114.423 113.417,113.756 113,112.5C 107.631,118.036 102.131,123.37 96.5,128.5C 94.8474,125.869 93.1807,123.203 91.5,120.5C 91.5,120.167 91.5,119.833 91.5,119.5C 91.5,118.833 91.5,118.167 91.5,117.5C 93.6744,114.485 95.3411,111.151 96.5,107.5C 97.9312,106.097 99.0978,104.431 100,102.5C 100.798,100.741 100.631,99.0745 99.5,97.5C 93.0904,93.9727 87.0904,89.9727 81.5,85.5C 82.7417,81.3447 84.7417,77.678 87.5,74.5 Z"/></g>
<g><path style="opacity:1" fill="#1142ff" d="M 50.5,94.5 C 54.7513,102.001 58.7513,109.668 62.5,117.5C 62.9234,118.265 63.2568,119.098 63.5,120C 61.7617,122.643 60.4284,125.477 59.5,128.5C 57.659,130.849 56.3257,133.515 55.5,136.5C 53.1773,139.135 51.3439,142.135 50,145.5C 49.0656,144.142 48.2323,142.808 47.5,141.5C 47.5,141.167 47.5,140.833 47.5,140.5C 44.3676,130.776 43.0343,120.776 43.5,110.5C 44.531,108.039 45.1977,105.373 45.5,102.5C 46.9422,100.46 47.9422,98.127 48.5,95.5C 48.9569,94.7025 49.6236,94.3691 50.5,94.5 Z"/></g>
<g><path style="opacity:1" fill="#7f8dff" d="M 30.5,88.5 C 33.2051,89.8535 35.5384,91.6868 37.5,94C 40.2837,94.8917 42.9504,96.0584 45.5,97.5C 46.0522,99.0026 46.0522,100.669 45.5,102.5C 45.1977,105.373 44.531,108.039 43.5,110.5C 43.719,109.325 43.3857,108.325 42.5,107.5C 38.4656,105.112 34.4656,102.778 30.5,100.5C 30.5,96.5 30.5,92.5 30.5,88.5 Z"/></g>
<g><path style="opacity:1" fill="#4e67ff" d="M 79.5,89.5 C 79.4142,90.4959 79.7476,91.3292 80.5,92C 79.6919,92.3076 79.0253,92.8076 78.5,93.5C 83.8317,97.5013 89.4984,101.001 95.5,104C 96.3366,105.011 96.67,106.178 96.5,107.5C 95.3411,111.151 93.6744,114.485 91.5,117.5C 90.5865,115.165 89.2532,112.999 87.5,111C 81.2279,109.848 76.5612,106.681 73.5,101.5C 74.9922,97.1822 76.9922,93.1822 79.5,89.5 Z"/></g>
<g><path style="opacity:1" fill="#8e9aff" d="M 30.5,100.5 C 34.4656,102.778 38.4656,105.112 42.5,107.5C 43.3857,108.325 43.719,109.325 43.5,110.5C 43.0343,120.776 44.3676,130.776 47.5,140.5C 45.6117,138.206 44.2784,135.539 43.5,132.5C 43.0668,127.167 42.5668,121.834 42,116.5C 39.6026,114.218 36.7693,112.884 33.5,112.5C 32.2463,108.565 31.2463,104.565 30.5,100.5 Z"/></g>
<g><path style="opacity:1" fill="#203eff" d="M 129.5,98.5 C 129.859,100.371 130.859,101.871 132.5,103C 137.667,106.167 142.833,109.333 148,112.5C 148.667,111.5 148.667,110.5 148,109.5C 146.745,108.789 145.579,107.956 144.5,107C 146.757,107.437 149.09,107.937 151.5,108.5C 149.5,112.167 147.5,115.833 145.5,119.5C 138.345,118.425 132.012,115.425 126.5,110.5C 125.754,109.264 125.421,107.93 125.5,106.5C 126.326,103.515 127.659,100.849 129.5,98.5 Z"/></g>
<g><path style="opacity:1" fill="#6176ff" d="M 73.5,101.5 C 76.5612,106.681 81.2279,109.848 87.5,111C 89.2532,112.999 90.5865,115.165 91.5,117.5C 91.5,118.167 91.5,118.833 91.5,119.5C 90.4168,119.539 89.4168,119.873 88.5,120.5C 82.5824,116.958 76.7491,113.292 71,109.5C 70.5172,108.552 70.3505,107.552 70.5,106.5C 71.2632,104.632 72.2632,102.965 73.5,101.5 Z"/></g>
<g><path style="opacity:1" fill="#3350ff" d="M 125.5,106.5 C 125.421,107.93 125.754,109.264 126.5,110.5C 132.012,115.425 138.345,118.425 145.5,119.5C 144.167,122.167 142.833,124.833 141.5,127.5C 133.845,126.422 127.345,123.089 122,117.5C 121.517,116.552 121.351,115.552 121.5,114.5C 122.326,111.515 123.659,108.849 125.5,106.5 Z"/></g>
<g><path style="opacity:1" fill="#7e8dff" d="M 70.5,106.5 C 70.3505,107.552 70.5172,108.552 71,109.5C 76.7491,113.292 82.5824,116.958 88.5,120.5C 89.4168,119.873 90.4168,119.539 91.5,119.5C 91.5,119.833 91.5,120.167 91.5,120.5C 88.917,123.997 86.5836,127.664 84.5,131.5C 77.7892,128.977 71.4559,125.644 65.5,121.5C 64.5661,119.905 64.5661,118.239 65.5,116.5C 66.6589,112.849 68.3256,109.515 70.5,106.5 Z"/></g>
<g><path style="opacity:1" fill="#0d34ff" d="M 115.5,114.5 C 116.674,115.514 117.34,116.847 117.5,118.5C 117.634,120.292 117.301,121.958 116.5,123.5C 114.472,127.184 112.472,130.85 110.5,134.5C 109.75,138.803 107.416,141.803 103.5,143.5C 100.896,138.625 98.5624,133.625 96.5,128.5C 102.131,123.37 107.631,118.036 113,112.5C 113.417,113.756 114.25,114.423 115.5,114.5 Z"/></g>
<g><path style="opacity:1" fill="#919bff" d="M 65.5,116.5 C 64.5661,118.239 64.5661,119.905 65.5,121.5C 71.4559,125.644 77.7892,128.977 84.5,131.5C 83.5,133.5 82.5,135.5 81.5,137.5C 79.6916,137.509 78.0249,137.009 76.5,136C 72.0715,133.52 67.7382,130.853 63.5,128C 62.0715,127.421 60.7382,127.588 59.5,128.5C 60.4284,125.477 61.7617,122.643 63.5,120C 63.2568,119.098 62.9234,118.265 62.5,117.5C 63.609,117.443 64.609,117.11 65.5,116.5 Z"/></g>
<g><path style="opacity:1" fill="#4760ff" d="M 121.5,114.5 C 121.351,115.552 121.517,116.552 122,117.5C 127.345,123.089 133.845,126.422 141.5,127.5C 140.404,130.032 139.071,132.365 137.5,134.5C 130.615,130.558 123.615,126.891 116.5,123.5C 117.301,121.958 117.634,120.292 117.5,118.5C 119.274,117.63 120.607,116.297 121.5,114.5 Z"/></g>
<g><path style="opacity:1" fill="#adb2ff" d="M 33.5,112.5 C 36.7693,112.884 39.6026,114.218 42,116.5C 42.5668,121.834 43.0668,127.167 43.5,132.5C 39.6588,126.151 36.3255,119.484 33.5,112.5 Z"/></g>
<g><path style="opacity:1" fill="#576dff" d="M 116.5,123.5 C 123.615,126.891 130.615,130.558 137.5,134.5C 136.439,137.622 135.105,140.622 133.5,143.5C 131.692,143.509 130.025,143.009 128.5,142C 123.634,138.636 118.634,135.469 113.5,132.5C 112.482,133.193 111.482,133.859 110.5,134.5C 112.472,130.85 114.472,127.184 116.5,123.5 Z"/></g>
<g><path style="opacity:1" fill="#a6acff" d="M 81.5,137.5 C 80.1667,140.167 78.8333,142.833 77.5,145.5C 70.766,142.05 63.9327,138.717 57,135.5C 56.6174,136.056 56.1174,136.389 55.5,136.5C 56.3257,133.515 57.659,130.849 59.5,128.5C 60.7382,127.588 62.0715,127.421 63.5,128C 67.7382,130.853 72.0715,133.52 76.5,136C 78.0249,137.009 79.6916,137.509 81.5,137.5 Z"/></g>
<g><path style="opacity:1" fill="#b6baff" d="M 77.5,145.5 C 68.0089,146.658 58.3422,146.825 48.5,146C 47.6198,144.644 47.2865,143.144 47.5,141.5C 48.2323,142.808 49.0656,144.142 50,145.5C 51.3439,142.135 53.1773,139.135 55.5,136.5C 56.1174,136.389 56.6174,136.056 57,135.5C 63.9327,138.717 70.766,142.05 77.5,145.5 Z"/></g>
<g><path style="opacity:1" fill="#7383ff" d="M 133.5,143.5 C 133.167,144.167 132.833,144.833 132.5,145.5C 122.75,145.806 113.084,145.473 103.5,144.5C 103.5,144.167 103.5,143.833 103.5,143.5C 107.416,141.803 109.75,138.803 110.5,134.5C 111.482,133.859 112.482,133.193 113.5,132.5C 118.634,135.469 123.634,138.636 128.5,142C 130.025,143.009 131.692,143.509 133.5,143.5 Z"/></g>
<g><path style="opacity:1" fill="#a0acff" d="M 103.5,144.5 C 113.084,145.473 122.75,145.806 132.5,145.5C 127.845,146.166 123.012,146.499 118,146.5C 112.784,146.494 107.951,145.827 103.5,144.5 Z"/></g>
</svg>
