<?xml version="1.0" encoding="UTF-8"?>
<!DOCTYPE svg PUBLIC "-//W3C//DTD SVG 1.1//EN" "http://www.w3.org/Graphics/SVG/1.1/DTD/svg11.dtd">
<svg xmlns="http://www.w3.org/2000/svg" version="1.1" width="482px" height="221px" style="shape-rendering:geometricPrecision; text-rendering:geometricPrecision; image-rendering:optimizeQuality; fill-rule:evenodd; clip-rule:evenodd" xmlns:xlink="http://www.w3.org/1999/xlink">
<g><path style="opacity:1" fill="#fefefe" d="M -0.5,-0.5 C 160.167,-0.5 320.833,-0.5 481.5,-0.5C 481.5,73.1667 481.5,146.833 481.5,220.5C 320.833,220.5 160.167,220.5 -0.5,220.5C -0.5,146.833 -0.5,73.1667 -0.5,-0.5 Z"/></g>
<g><path style="opacity:1" fill="#1c5a7a" d="M 75.5,24.5 C 95.2904,23.7936 114.957,24.9603 134.5,28C 143.285,29.4694 148.785,34.3028 151,42.5C 149.701,43.9797 148.034,44.6464 146,44.5C 126.601,41.669 107.101,40.8357 87.5,42C 84.6287,42.1177 81.962,42.7844 79.5,44C 95.2871,51.06 110.954,58.3934 126.5,66C 134.336,70.0033 140.336,75.8366 144.5,83.5C 144.392,84.4419 144.059,85.2753 143.5,86C 133.512,86.0268 123.512,85.8601 113.5,85.5C 105.449,85.4219 97.4495,85.9219 89.5,87C 101.743,91.4145 113.743,96.4145 125.5,102C 131.613,106.11 136.279,111.443 139.5,118C 139.355,118.772 139.022,119.439 138.5,120C 135.072,120.701 131.738,120.368 128.5,119C 124.067,114.916 119.067,111.582 113.5,109C 101.419,104.195 89.4189,99.1952 77.5,94C 70.9251,91.6897 64.2584,89.6897 57.5,88C 51.3647,85.6979 47.0314,81.5312 44.5,75.5C 45.1147,73.6162 46.448,72.6162 48.5,72.5C 67.0762,69.8964 85.7429,68.3964 104.5,68C 88.5,60.6667 72.5,53.3333 56.5,46C 52.2165,43.5535 49.2165,40.0535 47.5,35.5C 50.9158,30.9434 55.5825,28.11 61.5,27C 66.2943,26.0979 70.961,25.2645 75.5,24.5 Z"/></g>
<g><path style="opacity:1" fill="#121212" d="M 391.5,68.5 C 395.5,68.5 399.5,68.5 403.5,68.5C 403.5,88.5 403.5,108.5 403.5,128.5C 399.5,128.5 395.5,128.5 391.5,128.5C 391.649,127.448 391.483,126.448 391,125.5C 379.336,130.945 370.336,127.945 364,116.5C 360.386,105.772 362.886,96.9383 371.5,90C 378.153,86.5476 384.653,86.7142 391,90.5C 391.5,83.1742 391.666,75.8409 391.5,68.5 Z"/></g>
<g><path style="opacity:1" fill="#131313" d="M 173.5,87.5 C 177.555,87.1758 181.555,87.5091 185.5,88.5C 187.837,95.1882 190.17,101.855 192.5,108.5C 194.83,101.855 197.163,95.1882 199.5,88.5C 202.5,87.1667 205.5,87.1667 208.5,88.5C 210.837,95.1882 213.17,101.855 215.5,108.5C 218.138,101.953 220.471,95.2868 222.5,88.5C 226.445,87.5091 230.445,87.1758 234.5,87.5C 229.966,100.91 225.132,114.243 220,127.5C 217.205,128.783 214.372,128.783 211.5,127.5C 209,121.167 206.5,114.833 204,108.5C 201.667,114.833 199.333,121.167 197,127.5C 194.205,128.783 191.372,128.783 188.5,127.5C 183.097,114.286 178.097,100.953 173.5,87.5 Z"/></g>
<g><path style="opacity:1" fill="#141414" d="M 251.5,102.5 C 254.572,102.817 257.572,102.484 260.5,101.5C 260.376,100.893 260.043,100.56 259.5,100.5C 259.586,99.5041 259.252,98.6708 258.5,98C 254.428,97.0441 250.595,97.5441 247,99.5C 244.404,97.4513 241.571,95.7846 238.5,94.5C 244.839,88.1611 252.505,85.9944 261.5,88C 266.814,89.2287 270.314,92.3954 272,97.5C 272.5,107.828 272.666,118.161 272.5,128.5C 267.795,128.965 263.295,128.299 259,126.5C 254.071,128.522 248.905,129.022 243.5,128C 235.4,123.359 233.567,116.859 238,108.5C 241.724,104.721 246.224,102.721 251.5,102.5 Z"/></g>
<g><path style="opacity:1" fill="#131313" d="M 277.5,88.5 C 281.683,87.1889 286.016,87.1889 290.5,88.5C 292.635,94.7663 295.301,100.766 298.5,106.5C 301.947,100.49 304.614,94.157 306.5,87.5C 310.884,87.1744 315.217,87.5078 319.5,88.5C 312.391,104.384 305.558,120.384 299,136.5C 296.925,140.579 294.092,144.079 290.5,147C 284.535,148.692 279.535,147.359 275.5,143C 276.858,139.927 278.025,136.76 279,133.5C 281.555,135.65 284.388,135.983 287.5,134.5C 289.707,130.75 291.373,126.75 292.5,122.5C 287.45,111.077 282.45,99.7434 277.5,88.5 Z"/></g>
<g><path style="opacity:1" fill="#141414" d="M 334.5,87.5 C 343.083,85.7933 350.25,88.1266 356,94.5C 357.433,105.756 357.933,117.09 357.5,128.5C 353.486,128.666 349.486,128.499 345.5,128C 344.167,126 342.833,126 341.5,128C 337.167,128.667 332.833,128.667 328.5,128C 320.412,123.39 318.578,116.89 323,108.5C 325.234,106.3 327.734,104.467 330.5,103C 335.5,102.667 340.5,102.333 345.5,102C 344.833,100.667 344.167,99.3333 343.5,98C 339.428,97.0441 335.595,97.5441 332,99.5C 329.075,97.9555 326.242,96.2889 323.5,94.5C 326.765,91.3771 330.431,89.0437 334.5,87.5 Z"/></g>
<g><path style="opacity:1" fill="#131313" d="M 418.5,87.5 C 426.713,86.4598 433.713,88.7932 439.5,94.5C 437.5,97.1667 435.167,99.5 432.5,101.5C 429.342,98.5806 425.676,97.414 421.5,98C 420.253,99.4936 420.253,100.994 421.5,102.5C 427.884,104.121 433.717,106.787 439,110.5C 441.863,118.609 439.363,124.442 431.5,128C 426.833,128.667 422.167,128.667 417.5,128C 414.079,126.411 411.079,124.245 408.5,121.5C 410.5,118.833 412.833,116.5 415.5,114.5C 419.114,118.165 423.447,119.332 428.5,118C 429.833,116.667 429.833,115.333 428.5,114C 422.936,112.809 417.602,110.809 412.5,108C 408.4,104.101 407.567,99.6009 410,94.5C 412.441,91.5464 415.275,89.2131 418.5,87.5 Z"/></g>
<g><path style="opacity:1" fill="#fafafa" d="M 381.5,96.5 C 386.963,95.7839 390.463,98.1172 392,103.5C 393.587,109.606 392.087,114.772 387.5,119C 381.307,120.654 377.14,118.487 375,112.5C 373.416,105.375 375.583,100.042 381.5,96.5 Z"/></g>
<g><path style="opacity:1" fill="#878887" d="M 259.5,100.5 C 260.043,100.56 260.376,100.893 260.5,101.5C 257.572,102.484 254.572,102.817 251.5,102.5C 254.167,101.833 256.833,101.167 259.5,100.5 Z"/></g>
<g><path style="opacity:1" fill="#225d7d" d="M 103.5,110.5 C 108.126,111.802 112.46,113.802 116.5,116.5C 117.281,117.729 117.781,119.062 118,120.5C 118.667,119.833 119.333,119.167 120,118.5C 122.583,119.874 125.083,121.374 127.5,123C 126.327,126.11 126.827,126.277 129,123.5C 130.074,124.618 131.24,125.618 132.5,126.5C 130,130.833 127.5,135.167 125,139.5C 116.298,133.968 107.465,128.635 98.5,123.5C 97.4173,122.635 97.2506,121.635 98,120.5C 100.112,117.273 101.945,113.94 103.5,110.5 Z"/></g>
<g><path style="opacity:1" fill="#f5f5f5" d="M 250.5,111.5 C 253.833,111.5 257.167,111.5 260.5,111.5C 260.286,118.865 256.62,121.365 249.5,119C 247.315,116.322 247.649,113.822 250.5,111.5 Z"/></g>
<g><path style="opacity:1" fill="#efefef" d="M 334.5,111.5 C 338.167,111.5 341.833,111.5 345.5,111.5C 345.991,116.674 343.658,119.34 338.5,119.5C 332.405,119.214 331.071,116.547 334.5,111.5 Z"/></g>
<g><path style="opacity:1" fill="#1d5b7b" d="M 118.5,143.5 C 111.064,138.608 103.397,133.941 95.5,129.5C 94.7025,129.043 94.3691,128.376 94.5,127.5C 94.4614,126.244 94.9614,125.244 96,124.5C 105.454,129.805 114.621,135.472 123.5,141.5C 122.731,144.624 121.064,145.291 118.5,143.5 Z"/></g>
<g><path style="opacity:1" fill="#1e5c7b" d="M 93.5,130.5 C 101.218,135.53 109.218,140.197 117.5,144.5C 118.429,145.315 119.429,146.148 120.5,147C 118.147,153.378 113.481,156.045 106.5,155C 105.034,155.635 103.7,156.469 102.5,157.5C 98,165.167 93.5,172.833 89,180.5C 85.2533,184.918 80.9199,188.584 76,191.5C 75.8071,185.659 76.8071,179.993 79,174.5C 82.4969,167.502 86.4969,160.835 91,154.5C 93.6035,148.351 92.4368,143.018 87.5,138.5C 89.0343,135.407 91.0343,132.74 93.5,130.5 Z"/></g>
<g><path style="opacity:1" fill="#d3dee5" d="M 94.5,127.5 C 94.3691,128.376 94.7025,129.043 95.5,129.5C 103.397,133.941 111.064,138.608 118.5,143.5C 117.833,143.5 117.5,143.833 117.5,144.5C 109.218,140.197 101.218,135.53 93.5,130.5C 93.2627,129.209 93.596,128.209 94.5,127.5 Z"/></g>
<g><path style="opacity:1" fill="#e1e9ed" d="M 81.5,176.5 C 86.1972,177.874 86.5305,179.874 82.5,182.5C 80.261,180.867 79.9277,178.867 81.5,176.5 Z"/></g>
</svg>
