<?xml version="1.0" encoding="UTF-8" standalone="no"?>
<!DOCTYPE svg PUBLIC "-//W3C//DTD SVG 1.1//EN" "http://www.w3.org/Graphics/SVG/1.1/DTD/svg11.dtd">
<svg xmlns="http://www.w3.org/2000/svg" version="1.1" viewBox="0 0 391 103">
<g stroke-width="2.0" fill="none" stroke-linecap="butt">
<path stroke="#98a3d8" vector-effect="non-scaling-stroke" d="
  M 315.19 28.77
  Q 315.18 29.90 314.27 29.24
  Q 303.88 21.69 291.81 24.06
  Q 279.92 26.41 273.69 37.94
  Q 269.04 46.54 271.17 55.72
  Q 273.07 63.94 278.91 69.62
  Q 284.93 75.47 294.02 76.86
  Q 301.07 77.94 306.94 75.44
  Q 324.62 67.90 324.56 48.00
  Q 324.50 27.50 324.50 7.00
  Q 324.50 4.74 323.92 3.60
  Q 323.00 1.78 321.11 1.23
  Q 318.88 0.58 317.13 2.01
  Q 315.33 3.47 315.33 6.25
  Q 315.30 17.84 315.19 28.77"
/>
<path stroke="#7d9cf7" vector-effect="non-scaling-stroke" d="
  M 63.06 59.92
  Q 59.58 45.71 55.79 30.49
  Q 54.82 26.62 53.69 25.56
  Q 50.35 22.44 47.61 24.40
  Q 46.07 25.49 44.99 28.83
  Q 39.93 44.50 35.74 60.25
  Q 35.52 61.08 35.26 60.27
  Q 29.89 43.77 24.44 27.31
  Q 23.06 23.16 19.23 23.77
  Q 17.00 24.12 16.25 26.02
  Q 15.50 27.90 16.25 30.25
  Q 24.07 54.77 30.65 73.20
  Q 31.99 76.94 35.99 76.41
  Q 38.90 76.03 39.75 73.25
  Q 44.88 56.58 49.19 39.67
  Q 49.69 37.74 50.21 39.66
  Q 54.52 55.31 58.69 71.09
  Q 59.47 74.04 60.80 75.36
  Q 63.29 77.85 66.16 75.99
  Q 67.97 74.82 69.10 71.62
  Q 76.23 51.45 82.62 31.03
  Q 83.44 28.40 83.16 26.87
  Q 82.65 23.95 79.71 23.68
  Q 77.64 23.49 76.26 25.04
  Q 75.03 26.43 74.31 28.56
  Q 69.08 44.19 64.18 59.95
  Q 63.56 61.95 63.06 59.92"
/>
<path stroke="#839eef" vector-effect="non-scaling-stroke" d="
  M 132.08 71.53
  C 132.42 71.26 132.92 71.40 133.07 71.81
  Q 135.92 79.69 141.55 75.49
  C 141.81 75.29 142.00 75.03 142.10 74.72
  Q 143.01 71.88 143.00 67.00
  Q 142.98 58.61 142.73 52.82
  Q 142.36 44.09 140.13 39.00
  Q 135.48 28.40 123.94 24.56
  Q 117.04 22.27 109.92 23.95
  Q 103.36 25.49 97.96 30.23
  Q 88.33 38.67 89.13 51.69
  Q 89.60 59.28 93.48 65.14
  Q 97.71 71.53 104.75 74.64
  Q 111.42 77.59 118.56 76.95
  Q 126.11 76.26 132.08 71.53"
/>
<path stroke="#91a1e0" vector-effect="non-scaling-stroke" d="
  M 249.03 71.17
  C 249.25 71.00 249.56 71.13 249.60 71.40
  Q 250.00 74.28 251.46 75.76
  Q 253.06 77.39 255.51 76.64
  Q 259.00 75.57 259.00 70.75
  Q 258.99 58.33 258.75 51.00
  Q 258.54 44.47 256.83 40.26
  Q 252.40 29.40 241.62 25.29
  Q 234.87 22.71 228.15 23.60
  Q 220.94 24.54 215.19 29.19
  Q 208.09 34.92 205.91 43.51
  Q 204.32 49.79 205.68 56.01
  Q 207.09 62.48 211.44 67.56
  Q 219.81 77.34 233.24 76.78
  Q 242.17 76.41 249.03 71.17"
/>
<path stroke="#9ea5d0" vector-effect="non-scaling-stroke" d="
  M 343.69 30.19
  Q 340.96 33.36 340.90 37.51
  Q 340.84 41.28 342.95 44.51
  Q 345.05 47.71 348.69 49.56
  Q 354.52 52.51 360.96 53.71
  Q 364.13 54.30 367.17 55.35
  Q 370.59 56.52 371.87 59.48
  Q 372.88 61.82 371.84 64.01
  Q 370.73 66.36 368.00 67.25
  Q 357.78 70.59 349.12 64.53
  Q 349.09 64.50 347.56 63.27
  Q 344.36 60.69 341.36 62.54
  Q 339.17 63.89 338.95 66.33
  Q 338.70 69.10 341.31 70.94
  Q 349.34 76.59 358.99 76.92
  Q 364.90 77.13 368.97 76.25
  Q 374.33 75.09 378.00 71.25
  Q 384.53 64.42 381.19 56.48
  Q 379.57 52.66 375.57 50.10
  Q 371.54 47.53 367.19 46.56
  Q 360.74 45.13 356.19 43.56
  Q 353.24 42.55 351.83 41.12
  Q 349.25 38.48 351.17 35.58
  Q 352.73 33.23 356.30 32.39
  Q 363.71 30.64 370.32 34.60
  Q 370.35 34.62 372.44 36.19
  Q 374.85 38.00 377.67 37.47
  Q 379.78 37.08 380.62 35.54
  Q 381.62 33.67 380.07 31.44
  Q 378.28 28.86 376.19 27.56
  Q 370.54 24.04 363.91 23.48
  Q 357.92 22.97 353.15 24.23
  Q 347.53 25.72 343.69 30.19"
/>
<path stroke="#8a9fe7" vector-effect="non-scaling-stroke" d="
  M 175.88 61.31
  L 157.43 25.01
  C 157.28 24.71 157.03 24.49 156.72 24.38
  Q 151.62 22.53 149.91 27.27
  C 149.80 27.58 149.79 27.91 149.87 28.24
  Q 150.62 31.09 152.02 33.71
  Q 161.79 51.98 171.70 70.81
  C 171.99 71.36 172.00 72.02 171.73 72.58
  Q 166.53 83.37 162.42 93.98
  Q 161.68 95.89 162.29 97.16
  Q 163.08 98.79 164.95 99.53
  Q 168.97 101.11 170.65 97.35
  Q 185.16 64.92 199.54 32.43
  Q 200.91 29.33 200.86 27.90
  Q 200.75 24.85 197.00 24.01
  Q 193.64 23.26 192.56 25.56
  Q 184.34 43.07 176.79 61.28
  Q 176.38 62.29 175.88 61.31"
/>
<path stroke="#f9f9f9" vector-effect="non-scaling-stroke" d="
  M 16.85 97.97
  Q 18.60 99.74 20.28 99.42
  Q 23.88 98.75 22.84 94.97
  C 22.63 94.18 21.98 93.59 21.18 93.44
  Q 20.08 93.24 19.24 92.22
  C 19.01 91.94 18.71 91.79 18.44 91.82
  Q 17.47 91.93 17.02 92.73
  C 16.89 92.95 16.86 93.29 16.93 93.67
  Q 17.18 95.08 16.61 97.00
  C 16.51 97.34 16.60 97.71 16.85 97.97"
/>
<path stroke="#98a3d8" vector-effect="non-scaling-stroke" d="
  M 315.04 50.33
  C 315.04 40.65 307.19 32.80 297.51 32.80
  C 287.83 32.80 279.98 40.65 279.98 50.33
  C 279.98 60.01 287.83 67.86 297.51 67.86
  C 307.19 67.86 315.04 60.01 315.04 50.33"
/>
<path stroke="#839eef" vector-effect="non-scaling-stroke" d="
  M 133.29 50.20
  C 133.29 40.51 125.44 32.66 115.75 32.66
  C 106.06 32.66 98.21 40.51 98.21 50.20
  C 98.21 59.89 106.06 67.74 115.75 67.74
  C 125.44 67.74 133.29 59.89 133.29 50.20"
/>
<path stroke="#91a1e0" vector-effect="non-scaling-stroke" d="
  M 249.48 50.19
  C 249.48 40.51 241.64 32.67 231.96 32.67
  C 222.28 32.67 214.44 40.51 214.44 50.19
  C 214.44 59.87 222.28 67.71 231.96 67.71
  C 241.64 67.71 249.48 59.87 249.48 50.19"
/>
</g>
<path fill="#f9f9f9" d="
  M 0.00 0.00
  Q 195.50 0.00 391.00 0.00
  Q 391.00 51.50 391.00 103.00
  Q 195.50 103.00 0.00 103.00
  Q 0.00 51.50 0.00 0.00
  Z
  M 315.19 28.77
  Q 315.18 29.90 314.27 29.24
  Q 303.88 21.69 291.81 24.06
  Q 279.92 26.41 273.69 37.94
  Q 269.04 46.54 271.17 55.72
  Q 273.07 63.94 278.91 69.62
  Q 284.93 75.47 294.02 76.86
  Q 301.07 77.94 306.94 75.44
  Q 324.62 67.90 324.56 48.00
  Q 324.50 27.50 324.50 7.00
  Q 324.50 4.74 323.92 3.60
  Q 323.00 1.78 321.11 1.23
  Q 318.88 0.58 317.13 2.01
  Q 315.33 3.47 315.33 6.25
  Q 315.30 17.84 315.19 28.77
  Z
  M 63.06 59.92
  Q 59.58 45.71 55.79 30.49
  Q 54.82 26.62 53.69 25.56
  Q 50.35 22.44 47.61 24.40
  Q 46.07 25.49 44.99 28.83
  Q 39.93 44.50 35.74 60.25
  Q 35.52 61.08 35.26 60.27
  Q 29.89 43.77 24.44 27.31
  Q 23.06 23.16 19.23 23.77
  Q 17.00 24.12 16.25 26.02
  Q 15.50 27.90 16.25 30.25
  Q 24.07 54.77 30.65 73.20
  Q 31.99 76.94 35.99 76.41
  Q 38.90 76.03 39.75 73.25
  Q 44.88 56.58 49.19 39.67
  Q 49.69 37.74 50.21 39.66
  Q 54.52 55.31 58.69 71.09
  Q 59.47 74.04 60.80 75.36
  Q 63.29 77.85 66.16 75.99
  Q 67.97 74.82 69.10 71.62
  Q 76.23 51.45 82.62 31.03
  Q 83.44 28.40 83.16 26.87
  Q 82.65 23.95 79.71 23.68
  Q 77.64 23.49 76.26 25.04
  Q 75.03 26.43 74.31 28.56
  Q 69.08 44.19 64.18 59.95
  Q 63.56 61.95 63.06 59.92
  Z
  M 132.08 71.53
  C 132.42 71.26 132.92 71.40 133.07 71.81
  Q 135.92 79.69 141.55 75.49
  C 141.81 75.29 142.00 75.03 142.10 74.72
  Q 143.01 71.88 143.00 67.00
  Q 142.98 58.61 142.73 52.82
  Q 142.36 44.09 140.13 39.00
  Q 135.48 28.40 123.94 24.56
  Q 117.04 22.27 109.92 23.95
  Q 103.36 25.49 97.96 30.23
  Q 88.33 38.67 89.13 51.69
  Q 89.60 59.28 93.48 65.14
  Q 97.71 71.53 104.75 74.64
  Q 111.42 77.59 118.56 76.95
  Q 126.11 76.26 132.08 71.53
  Z
  M 249.03 71.17
  C 249.25 71.00 249.56 71.13 249.60 71.40
  Q 250.00 74.28 251.46 75.76
  Q 253.06 77.39 255.51 76.64
  Q 259.00 75.57 259.00 70.75
  Q 258.99 58.33 258.75 51.00
  Q 258.54 44.47 256.83 40.26
  Q 252.40 29.40 241.62 25.29
  Q 234.87 22.71 228.15 23.60
  Q 220.94 24.54 215.19 29.19
  Q 208.09 34.92 205.91 43.51
  Q 204.32 49.79 205.68 56.01
  Q 207.09 62.48 211.44 67.56
  Q 219.81 77.34 233.24 76.78
  Q 242.17 76.41 249.03 71.17
  Z
  M 343.69 30.19
  Q 340.96 33.36 340.90 37.51
  Q 340.84 41.28 342.95 44.51
  Q 345.05 47.71 348.69 49.56
  Q 354.52 52.51 360.96 53.71
  Q 364.13 54.30 367.17 55.35
  Q 370.59 56.52 371.87 59.48
  Q 372.88 61.82 371.84 64.01
  Q 370.73 66.36 368.00 67.25
  Q 357.78 70.59 349.12 64.53
  Q 349.09 64.50 347.56 63.27
  Q 344.36 60.69 341.36 62.54
  Q 339.17 63.89 338.95 66.33
  Q 338.70 69.10 341.31 70.94
  Q 349.34 76.59 358.99 76.92
  Q 364.90 77.13 368.97 76.25
  Q 374.33 75.09 378.00 71.25
  Q 384.53 64.42 381.19 56.48
  Q 379.57 52.66 375.57 50.10
  Q 371.54 47.53 367.19 46.56
  Q 360.74 45.13 356.19 43.56
  Q 353.24 42.55 351.83 41.12
  Q 349.25 38.48 351.17 35.58
  Q 352.73 33.23 356.30 32.39
  Q 363.71 30.64 370.32 34.60
  Q 370.35 34.62 372.44 36.19
  Q 374.85 38.00 377.67 37.47
  Q 379.78 37.08 380.62 35.54
  Q 381.62 33.67 380.07 31.44
  Q 378.28 28.86 376.19 27.56
  Q 370.54 24.04 363.91 23.48
  Q 357.92 22.97 353.15 24.23
  Q 347.53 25.72 343.69 30.19
  Z
  M 175.88 61.31
  L 157.43 25.01
  C 157.28 24.71 157.03 24.49 156.72 24.38
  Q 151.62 22.53 149.91 27.27
  C 149.80 27.58 149.79 27.91 149.87 28.24
  Q 150.62 31.09 152.02 33.71
  Q 161.79 51.98 171.70 70.81
  C 171.99 71.36 172.00 72.02 171.73 72.58
  Q 166.53 83.37 162.42 93.98
  Q 161.68 95.89 162.29 97.16
  Q 163.08 98.79 164.95 99.53
  Q 168.97 101.11 170.65 97.35
  Q 185.16 64.92 199.54 32.43
  Q 200.91 29.33 200.86 27.90
  Q 200.75 24.85 197.00 24.01
  Q 193.64 23.26 192.56 25.56
  Q 184.34 43.07 176.79 61.28
  Q 176.38 62.29 175.88 61.31
  Z
  M 16.85 97.97
  Q 18.60 99.74 20.28 99.42
  Q 23.88 98.75 22.84 94.97
  C 22.63 94.18 21.98 93.59 21.18 93.44
  Q 20.08 93.24 19.24 92.22
  C 19.01 91.94 18.71 91.79 18.44 91.82
  Q 17.47 91.93 17.02 92.73
  C 16.89 92.95 16.86 93.29 16.93 93.67
  Q 17.18 95.08 16.61 97.00
  C 16.51 97.34 16.60 97.71 16.85 97.97
  Z"
/>
<path fill="#364cb6" d="
  M 315.19 28.77
  Q 315.30 17.84 315.33 6.25
  Q 315.33 3.47 317.13 2.01
  Q 318.88 0.58 321.11 1.23
  Q 323.00 1.78 323.92 3.60
  Q 324.50 4.74 324.50 7.00
  Q 324.50 27.50 324.56 48.00
  Q 324.62 67.90 306.94 75.44
  Q 301.07 77.94 294.02 76.86
  Q 284.93 75.47 278.91 69.62
  Q 273.07 63.94 271.17 55.72
  Q 269.04 46.54 273.69 37.94
  Q 279.92 26.41 291.81 24.06
  Q 303.88 21.69 314.27 29.24
  Q 315.18 29.90 315.19 28.77
  Z
  M 315.04 50.33
  C 315.04 40.65 307.19 32.80 297.51 32.80
  C 287.83 32.80 279.98 40.65 279.98 50.33
  C 279.98 60.01 287.83 67.86 297.51 67.86
  C 307.19 67.86 315.04 60.01 315.04 50.33
  Z"
/>
<path fill="#003ef4" d="
  M 63.06 59.92
  Q 63.56 61.95 64.18 59.95
  Q 69.08 44.19 74.31 28.56
  Q 75.03 26.43 76.26 25.04
  Q 77.64 23.49 79.71 23.68
  Q 82.65 23.95 83.16 26.87
  Q 83.44 28.40 82.62 31.03
  Q 76.23 51.45 69.10 71.62
  Q 67.97 74.82 66.16 75.99
  Q 63.29 77.85 60.80 75.36
  Q 59.47 74.04 58.69 71.09
  Q 54.52 55.31 50.21 39.66
  Q 49.69 37.74 49.19 39.67
  Q 44.88 56.58 39.75 73.25
  Q 38.90 76.03 35.99 76.41
  Q 31.99 76.94 30.65 73.20
  Q 24.07 54.77 16.25 30.25
  Q 15.50 27.90 16.25 26.02
  Q 17.00 24.12 19.23 23.77
  Q 23.06 23.16 24.44 27.31
  Q 29.89 43.77 35.26 60.27
  Q 35.52 61.08 35.74 60.25
  Q 39.93 44.50 44.99 28.83
  Q 46.07 25.49 47.61 24.40
  Q 50.35 22.44 53.69 25.56
  Q 54.82 26.62 55.79 30.49
  Q 59.58 45.71 63.06 59.92
  Z"
/>
<path fill="#0d42e5" d="
  M 132.08 71.53
  Q 126.11 76.26 118.56 76.95
  Q 111.42 77.59 104.75 74.64
  Q 97.71 71.53 93.48 65.14
  Q 89.60 59.28 89.13 51.69
  Q 88.33 38.67 97.96 30.23
  Q 103.36 25.49 109.92 23.95
  Q 117.04 22.27 123.94 24.56
  Q 135.48 28.40 140.13 39.00
  Q 142.36 44.09 142.73 52.82
  Q 142.98 58.61 143.00 67.00
  Q 143.01 71.88 142.10 74.72
  C 142.00 75.03 141.81 75.29 141.55 75.49
  Q 135.92 79.69 133.07 71.81
  C 132.92 71.40 132.42 71.26 132.08 71.53
  Z
  M 133.29 50.20
  C 133.29 40.51 125.44 32.66 115.75 32.66
  C 106.06 32.66 98.21 40.51 98.21 50.20
  C 98.21 59.89 106.06 67.74 115.75 67.74
  C 125.44 67.74 133.29 59.89 133.29 50.20
  Z"
/>
<path fill="#2849c6" d="
  M 249.03 71.17
  Q 242.17 76.41 233.24 76.78
  Q 219.81 77.34 211.44 67.56
  Q 207.09 62.48 205.68 56.01
  Q 204.32 49.79 205.91 43.51
  Q 208.09 34.92 215.19 29.19
  Q 220.94 24.54 228.15 23.60
  Q 234.87 22.71 241.62 25.29
  Q 252.40 29.40 256.83 40.26
  Q 258.54 44.47 258.75 51.00
  Q 258.99 58.33 259.00 70.75
  Q 259.00 75.57 255.51 76.64
  Q 253.06 77.39 251.46 75.76
  Q 250.00 74.28 249.60 71.40
  C 249.56 71.13 249.25 71.00 249.03 71.17
  Z
  M 249.48 50.19
  C 249.48 40.51 241.64 32.67 231.96 32.67
  C 222.28 32.67 214.44 40.51 214.44 50.19
  C 214.44 59.87 222.28 67.71 231.96 67.71
  C 241.64 67.71 249.48 59.87 249.48 50.19
  Z"
/>
<path fill="#4350a7" d="
  M 343.69 30.19
  Q 347.53 25.72 353.15 24.23
  Q 357.92 22.97 363.91 23.48
  Q 370.54 24.04 376.19 27.56
  Q 378.28 28.86 380.07 31.44
  Q 381.62 33.67 380.62 35.54
  Q 379.78 37.08 377.67 37.47
  Q 374.85 38.00 372.44 36.19
  Q 370.35 34.62 370.32 34.60
  Q 363.71 30.64 356.30 32.39
  Q 352.73 33.23 351.17 35.58
  Q 349.25 38.48 351.83 41.12
  Q 353.24 42.55 356.19 43.56
  Q 360.74 45.13 367.19 46.56
  Q 371.54 47.53 375.57 50.10
  Q 379.57 52.66 381.19 56.48
  Q 384.53 64.42 378.00 71.25
  Q 374.33 75.09 368.97 76.25
  Q 364.90 77.13 358.99 76.92
  Q 349.34 76.59 341.31 70.94
  Q 338.70 69.10 338.95 66.33
  Q 339.17 63.89 341.36 62.54
  Q 344.36 60.69 347.56 63.27
  Q 349.09 64.50 349.12 64.53
  Q 357.78 70.59 368.00 67.25
  Q 370.73 66.36 371.84 64.01
  Q 372.88 61.82 371.87 59.48
  Q 370.59 56.52 367.17 55.35
  Q 364.13 54.30 360.96 53.71
  Q 354.52 52.51 348.69 49.56
  Q 345.05 47.71 342.95 44.51
  Q 340.84 41.28 340.90 37.51
  Q 340.96 33.36 343.69 30.19
  Z"
/>
<path fill="#1b45d5" d="
  M 175.88 61.31
  Q 176.38 62.29 176.79 61.28
  Q 184.34 43.07 192.56 25.56
  Q 193.64 23.26 197.00 24.01
  Q 200.75 24.85 200.86 27.90
  Q 200.91 29.33 199.54 32.43
  Q 185.16 64.92 170.65 97.35
  Q 168.97 101.11 164.95 99.53
  Q 163.08 98.79 162.29 97.16
  Q 161.68 95.89 162.42 93.98
  Q 166.53 83.37 171.73 72.58
  C 172.00 72.02 171.99 71.36 171.70 70.81
  Q 161.79 51.98 152.02 33.71
  Q 150.62 31.09 149.87 28.24
  C 149.79 27.91 149.80 27.58 149.91 27.27
  Q 151.62 22.53 156.72 24.38
  C 157.03 24.49 157.28 24.71 157.43 25.01
  L 175.88 61.31
  Z"
/>
<circle fill="#f9f9f9" cx="115.75" cy="50.20" r="17.54"/>
<circle fill="#f9f9f9" cx="231.96" cy="50.19" r="17.52"/>
<circle fill="#f9f9f9" cx="297.51" cy="50.33" r="17.53"/>
<path fill="#f9f9f9" d="
  M 16.85 97.97
  C 16.60 97.71 16.51 97.34 16.61 97.00
  Q 17.18 95.08 16.93 93.67
  C 16.86 93.29 16.89 92.95 17.02 92.73
  Q 17.47 91.93 18.44 91.82
  C 18.71 91.79 19.01 91.94 19.24 92.22
  Q 20.08 93.24 21.18 93.44
  C 21.98 93.59 22.63 94.18 22.84 94.97
  Q 23.88 98.75 20.28 99.42
  Q 18.60 99.74 16.85 97.97
  Z"
/>
</svg>
