<?xml version="1.0" encoding="iso-8859-1"?>
<!-- Generator: Adobe Illustrator 19.0.0, SVG Export Plug-In . SVG Version: 6.00 Build 0)  -->
<svg version="1.1" id="Capa_1" xmlns="http://www.w3.org/2000/svg" xmlns:xlink="http://www.w3.org/1999/xlink" x="0px" y="0px"
	 viewBox="0 0 360 360" style="enable-background:new 0 0 360 360;" xml:space="preserve">
<g id="XMLID_1530_">
	<path id="XMLID_1531_" style="fill:#ACABB1;" d="M30.745,165H10v30h20.745c-0.49-4.934-0.745-9.938-0.745-15
		S30.254,169.934,30.745,165z"/>
	<path id="XMLID_1532_" style="fill:#ACABB1;" d="M350,165h-20.745c0.49,4.934,0.745,9.938,0.745,15s-0.254,10.066-0.745,15H350V165
		z"/>
	<path id="XMLID_1533_" style="fill:#FF5023;" d="M180,0H90v59.993C115.07,41.162,146.231,30,180,30V0z"/>
	<path id="XMLID_1534_" style="fill:#FF5023;" d="M90,300.007V360h90v-30C146.231,330,115.07,318.838,90,300.007z"/>
	<path id="XMLID_1535_" style="fill:#BF3C1A;" d="M180,360h90v-59.993C244.93,318.838,213.769,330,180,330V360z"/>
	<path id="XMLID_1536_" style="fill:#BF3C1A;" d="M270,59.993V0h-90v30C213.769,30,244.93,41.162,270,59.993z"/>
	<path id="XMLID_1537_" style="fill:#EBEBEC;" d="M180,300c-66.274,0-120-53.726-120-120S113.726,60,180,60V30
		c-33.769,0-64.93,11.162-90,29.993C57.327,84.536,35.003,122.109,30.745,165c-0.49,4.934-0.745,9.938-0.745,15
		s0.254,10.066,0.745,15C35.003,237.891,57.327,275.464,90,300.007C115.07,318.838,146.231,330,180,330V300z"/>
	<path id="XMLID_1538_" style="fill:#CDCDD0;" d="M329.255,165C324.997,122.109,302.673,84.536,270,59.993
		C244.93,41.162,213.769,30,180,30v30c66.274,0,120,53.726,120,120s-53.726,120-120,120v30c33.769,0,64.93-11.162,90-29.993
		c32.673-24.543,54.997-62.116,59.255-105.007c0.49-4.934,0.745-9.938,0.745-15S329.746,169.934,329.255,165z"/>
	<path id="XMLID_1539_" style="fill:#78B9EB;" d="M60,180c0,66.274,53.726,120,120,120V195h-15v-75h15V60
		C113.726,60,60,113.726,60,180z"/>
	<path id="XMLID_1540_" style="fill:#5A8BB0;" d="M195,120v45h75v30h-90v105c66.274,0,120-53.726,120-120S246.274,60,180,60v60H195z
		"/>
	<polygon id="XMLID_1541_" style="fill:#FFFFFF;" points="270,165 195,165 195,120 180,120 165,120 165,195 180,195 270,195 	"/>
</g>
<g>
</g>
<g>
</g>
<g>
</g>
<g>
</g>
<g>
</g>
<g>
</g>
<g>
</g>
<g>
</g>
<g>
</g>
<g>
</g>
<g>
</g>
<g>
</g>
<g>
</g>
<g>
</g>
<g>
</g>
</svg>
